Coordinates
version=1
nRows=32
nColumns=12
inDegrees=yes

Units are S.I. units (second, meters, Newtons, ...)
Angles are in degrees

endheader
time	SC_y	SC_z	SC_x	AC_y	AC_z	AC_x	GH_y	GH_z	GH_yy	EL_x	PS_y
       0.0               -59.2          28.21          34.06          55.97         -16.41         -3.317         -65.22          61.49          93.16           21.2          118.7
    0.0214              -59.19          28.21          34.06          55.97         -16.41         -3.314         -65.19          61.49          93.14          21.22          118.7
   0.04279              -59.18          28.21          34.05          55.97         -16.41         -3.311         -65.17          61.49          93.12          21.24          118.7
   0.06419              -59.17           28.2          34.05          55.97         -16.41         -3.308         -65.14           61.5           93.1          21.26          118.7
   0.08558              -59.17           28.2          34.05          55.97         -16.41         -3.305          -65.1           61.5          93.08          21.28          118.7
     0.107              -59.16           28.2          34.04          55.97         -16.41         -3.302         -65.07           61.5          93.06           21.3          118.7
    0.1284              -59.15           28.2          34.04          55.97         -16.41         -3.298         -65.03           61.5          93.03          21.33          118.7
    0.1498              -59.14          28.19          34.03          55.97         -16.41         -3.294          -65.0          61.51          93.01          21.35          118.7
    0.1712              -59.13          28.19          34.03          55.97         -16.41          -3.29         -64.95          61.51          92.98          21.38          118.7
    0.1926              -59.12          28.19          34.02          55.97         -16.41         -3.286         -64.91          61.52          92.95          21.41          118.7
     0.214              -59.11          28.19          34.02          55.97         -16.41         -3.281         -64.86          61.52          92.92          21.44          118.7
    0.2353              -59.09          28.18          34.01          55.97         -16.41         -3.276         -64.81          61.53          92.88          21.47          118.7
    0.2567              -59.08          28.18           34.0          55.96         -16.41          -3.27         -64.75          61.53          92.84          21.51          118.7
    0.2781              -59.07          28.18           34.0          55.96         -16.41         -3.264          -64.7          61.54           92.8          21.55          118.7
    0.2995              -59.05          28.17          33.99          55.96         -16.41         -3.258         -64.63          61.54          92.76          21.59          118.7
    0.3209              -59.03          28.17          33.98          55.96         -16.41         -3.251         -64.56          61.55          92.71          21.63          118.7
    0.3423              -59.01          28.16          33.97          55.96         -16.41         -3.243         -64.48          61.56          92.66          21.68          118.7
    0.3637              -58.99          28.16          33.96          55.96         -16.41         -3.235          -64.4          61.57           92.6          21.74          118.7
    0.3851              -58.97          28.15          33.95          55.96         -16.41         -3.226         -64.31          61.57          92.54           21.8          118.7
    0.4065              -58.95          28.15          33.94          55.96         -16.41         -3.216         -64.21          61.58          92.47          21.86          118.7
    0.4279              -58.92          28.14          33.93          55.96         -16.41         -3.205          -64.1          61.59           92.4          21.93          118.7
    0.4493              -58.89          28.13          33.91          55.96         -16.42         -3.193         -63.98          61.61          92.32          22.01          118.7
    0.4707              -58.86          28.12           33.9          55.95         -16.42         -3.179         -63.85          61.62          92.23           22.1          118.7
    0.4921              -58.82          28.11          33.88          55.95         -16.42         -3.165          -63.7          61.63          92.13           22.2          118.7
    0.5135              -58.78           28.1          33.86          55.95         -16.42         -3.148         -63.54          61.65          92.02           22.3          118.7
    0.5349              -58.74          28.09          33.84          55.95         -16.42          -3.13         -63.36          61.66          91.89          22.42          118.7
    0.5563              -58.69          28.08          33.82          55.95         -16.42          -3.11         -63.15          61.68          91.75          22.56          118.7
    0.5777              -58.63          28.07          33.79          55.94         -16.42         -3.087         -62.92          61.71           91.6          22.71          118.7
    0.5991              -58.57          28.05          33.76          55.94         -16.42         -3.061         -62.66          61.73          91.42          22.88          118.7
    0.6205              -58.49          28.03          33.72          55.94         -16.42         -3.031         -62.37          61.76          91.22          23.07          118.7
    0.6419              -58.41          28.01          33.68          55.93         -16.42         -2.997         -62.03          61.79          90.99          23.29          118.7
    0.6632              -58.32          27.99          33.64          55.93         -16.43         -2.959         -61.65          61.83          90.73          23.54          118.7
